<svg xmlns="http://www.w3.org/2000/svg" viewBox="0 0 32 32" width="128" height="128">
    <radialGradient id="ab">
        <stop stop-color="#d654dbce" offset="0" />
        <stop stop-color="#3b5dfed3" offset="1" />
    </radialGradient>
    <rect width="100%" height="100%" opacity="1" fill="white" />
    <rect width="100%" height="100%" opacity=".5" fill="url(#ab)" />
    <linearGradient id="cdc">
        <stop stop-color="#d3d32fe8" offset="0" />
        <stop stop-color="#9719f6cd" offset=".5" />
        <stop stop-color="#d3d32fe8" offset="1" />
    </linearGradient>
    <linearGradient id="dcd">
        <stop stop-color="#9719f6cd" offset="0" />
        <stop stop-color="#d3d32fe8" offset=".5" />
        <stop stop-color="#9719f6cd" offset="1" />
    </linearGradient>
    <path
        fill="url(#cdc)"
        stroke-width=".1"
        stroke="url(#dcd)"
        d="M18 11C20 18 10 18 12 19S23 19 16 18S23 11 16 8S20 23 10 21S12 10 22 12S8 18 16 11S10 22 15 18S10 8 13 21S19 8 16 22Q13 36 18 11zM14 11C12 18 22 18 20 19S9 19 16 18S9 11 16 8S12 23 22 21S20 10 10 12S24 18 16 11S22 22 17 18S22 8 19 21S13 8 16 22Q19 36 14 11z"
    />
</svg>