<svg xmlns="http://www.w3.org/2000/svg" viewBox="0 0 32 32" width="128" height="128">
    <radialGradient id="ab">
        <stop stop-color="#30e332fd" offset="0" />
        <stop stop-color="#79d229e8" offset="1" />
    </radialGradient>
    <rect width="100%" height="100%" opacity="1" fill="white" />
    <rect width="100%" height="100%" opacity=".5" fill="url(#ab)" />
    <linearGradient id="cdc">
        <stop stop-color="#fcf5bccc" offset="0" />
        <stop stop-color="#04a750cf" offset=".5" />
        <stop stop-color="#fcf5bccc" offset="1" />
    </linearGradient>
    <linearGradient id="dcd">
        <stop stop-color="#04a750cf" offset="0" />
        <stop stop-color="#fcf5bccc" offset=".5" />
        <stop stop-color="#04a750cf" offset="1" />
    </linearGradient>
    <path
        fill="url(#cdc)"
        stroke-width=".1"
        stroke="url(#dcd)"
        d="M13 8C16 21 20 22 23 8S8 19 10 22S13 19 16 10S23 16 22 23S22 10 14 18S16 22 19 23S20 9 18 21S22 14 21 13S10 16 19 14Q28 12 13 8zM19 8C16 21 12 22 9 8S24 19 22 22S19 19 16 10S9 16 10 23S10 10 18 18S16 22 13 23S12 9 14 21S10 14 11 13S22 16 13 14Q4 12 19 8z"
    />
</svg>